<svg width="769" height="473" xmlns="http://www.w3.org/2000/svg" xmlns:xlink="http://www.w3.org/1999/xlink" overflow="hidden"><defs><clipPath id="clip0"><rect x="27" y="52" width="769" height="473"/></clipPath><clipPath id="clip1"><rect x="27" y="51" width="769" height="474"/></clipPath><clipPath id="clip2"><rect x="27" y="51" width="769" height="474"/></clipPath><clipPath id="clip3"><rect x="27" y="51" width="769" height="474"/></clipPath><clipPath id="clip4"><rect x="55" y="97" width="730" height="216"/></clipPath><clipPath id="clip5"><rect x="55" y="97" width="730" height="216"/></clipPath><clipPath id="clip6"><rect x="55" y="97" width="730" height="216"/></clipPath><clipPath id="clip7"><rect x="55" y="97" width="730" height="216"/></clipPath><clipPath id="clip8"><rect x="55" y="97" width="730" height="216"/></clipPath><clipPath id="clip9"><rect x="55" y="97" width="730" height="216"/></clipPath><clipPath id="clip10"><rect x="27" y="51" width="769" height="474"/></clipPath><clipPath id="clip11"><rect x="27" y="51" width="769" height="474"/></clipPath><clipPath id="clip12"><rect x="27" y="51" width="769" height="474"/></clipPath><clipPath id="clip13"><rect x="27" y="51" width="769" height="474"/></clipPath><clipPath id="clip14"><rect x="27" y="51" width="769" height="474"/></clipPath><clipPath id="clip15"><rect x="27" y="51" width="769" height="474"/></clipPath><clipPath id="clip16"><rect x="27" y="51" width="769" height="474"/></clipPath><clipPath id="clip17"><rect x="27" y="51" width="769" height="474"/></clipPath><clipPath id="clip18"><rect x="27" y="51" width="769" height="474"/></clipPath><clipPath id="clip19"><rect x="27" y="51" width="769" height="474"/></clipPath><clipPath id="clip20"><rect x="27" y="51" width="769" height="474"/></clipPath><clipPath id="clip21"><rect x="27" y="51" width="769" height="474"/></clipPath><clipPath id="clip22"><rect x="27" y="51" width="769" height="474"/></clipPath><clipPath id="clip23"><rect x="27" y="51" width="769" height="474"/></clipPath><clipPath id="clip24"><rect x="27" y="51" width="769" height="474"/></clipPath><clipPath id="clip25"><rect x="27" y="51" width="769" height="474"/></clipPath><clipPath id="clip26"><rect x="27" y="51" width="769" height="474"/></clipPath><clipPath id="clip27"><rect x="27" y="51" width="769" height="474"/></clipPath><clipPath id="clip28"><rect x="27" y="51" width="769" height="474"/></clipPath><clipPath id="clip29"><rect x="27" y="51" width="769" height="474"/></clipPath><clipPath id="clip30"><rect x="27" y="51" width="769" height="474"/></clipPath><clipPath id="clip31"><rect x="27" y="51" width="769" height="474"/></clipPath><clipPath id="clip32"><rect x="27" y="51" width="769" height="474"/></clipPath><clipPath id="clip33"><rect x="27" y="51" width="769" height="474"/></clipPath><clipPath id="clip34"><rect x="27" y="51" width="769" height="474"/></clipPath><clipPath id="clip35"><rect x="27" y="51" width="769" height="474"/></clipPath><clipPath id="clip36"><rect x="27" y="51" width="769" height="474"/></clipPath><clipPath id="clip37"><rect x="27" y="51" width="769" height="474"/></clipPath><clipPath id="clip38"><rect x="27" y="51" width="769" height="474"/></clipPath><clipPath id="clip39"><rect x="27" y="51" width="769" height="474"/></clipPath><clipPath id="clip40"><rect x="27" y="51" width="769" height="474"/></clipPath><clipPath id="clip41"><rect x="27" y="51" width="769" height="474"/></clipPath><clipPath id="clip42"><rect x="27" y="51" width="769" height="474"/></clipPath><clipPath id="clip43"><rect x="27" y="51" width="769" height="474"/></clipPath><clipPath id="clip44"><rect x="27" y="51" width="769" height="474"/></clipPath><clipPath id="clip45"><rect x="27" y="51" width="769" height="474"/></clipPath><clipPath id="clip46"><rect x="27" y="51" width="769" height="474"/></clipPath><clipPath id="clip47"><rect x="27" y="51" width="769" height="474"/></clipPath><clipPath id="clip48"><rect x="27" y="51" width="769" height="474"/></clipPath><clipPath id="clip49"><rect x="27" y="51" width="769" height="474"/></clipPath><clipPath id="clip50"><rect x="27" y="51" width="769" height="474"/></clipPath><clipPath id="clip51"><rect x="27" y="51" width="769" height="474"/></clipPath><clipPath id="clip52"><rect x="27" y="51" width="769" height="474"/></clipPath><clipPath id="clip53"><rect x="27" y="51" width="769" height="474"/></clipPath><clipPath id="clip54"><rect x="27" y="51" width="769" height="474"/></clipPath><clipPath id="clip55"><rect x="27" y="51" width="769" height="474"/></clipPath></defs><g clip-path="url(#clip0)" transform="translate(-27 -52)"><g clip-path="url(#clip1)"><rect x="56" y="97" width="728" height="216" fill="#EAEAEA"/></g><g clip-path="url(#clip2)"><path d="M55.5 312.5 784.5 312.5M55.5 291.5 784.5 291.5M55.5 248.5 784.5 248.5M55.5 226.5 784.5 226.5M55.5 204.5 784.5 204.5M55.5 183.5 784.5 183.5M55.5 161.5 784.5 161.5M55.5 140.5 784.5 140.5M55.5 118.5 784.5 118.5M55.5 97.5 784.5 97.5" stroke="#FFFFFF" stroke-width="1.25" stroke-linejoin="round" stroke-miterlimit="10" fill="none"/></g><g clip-path="url(#clip3)"><path d="M121.5 97.5 121.5 312.5M188.5 97.5 188.5 312.5M254.5 97.5 254.5 312.5M320.5 97.5 320.5 312.5M386.5 97.5 386.5 312.5M453.5 97.5 453.5 312.5M519.5 97.5 519.5 312.5M585.5 97.5 585.5 312.5M651.5 97.5 651.5 312.5M717.5 97.5 717.5 312.5M784.5 97.5 784.5 312.5" stroke="#FFFFFF" stroke-width="1.25" stroke-linejoin="round" stroke-miterlimit="10" fill="none"/></g><g clip-path="url(#clip4)"><path d="M61 161 69 161 69 270 61 270ZM127 261 135 261 135 270 127 270ZM194 252 201 252 201 270 194 270ZM260 186 267 186 267 270 260 270ZM326 245 334 245 334 270 326 270ZM392 258 400 258 400 270 392 270ZM459 213 466 213 466 270 459 270ZM525 246 532 246 532 270 525 270ZM591 244 599 244 599 270 591 270ZM657 264 665 264 665 270 657 270ZM724 205 731 205 731 270 724 270Z" fill="#A7CE39"/></g><g clip-path="url(#clip5)"><path d="M71 147 78 147 78 270 71 270ZM137 264 144 264 144 270 137 270ZM203 255 211 255 211 270 203 270ZM269 167 277 167 277 270 269 270ZM336 247 343 247 343 270 336 270ZM402 259 409 259 409 270 402 270ZM468 229 476 229 476 270 468 270ZM534 244 542 244 542 270 534 270ZM601 247 608 247 608 270 601 270ZM667 264 674 264 674 270 667 270ZM733 212 741 212 741 270 733 270Z" fill="#548235"/></g><g clip-path="url(#clip6)"><path d="M80 200 88 200 88 270 80 270ZM146 253 154 253 154 270 146 270ZM213 243 220 243 220 270 213 270ZM279 247 286 247 286 270 279 270ZM345 239 353 239 353 270 345 270ZM411 254 419 254 419 270 411 270ZM478 167 485 167 485 270 478 270ZM544 250 551 250 551 270 544 270ZM610 237 618 237 618 270 610 270ZM676 264 684 264 684 270 676 270ZM743 177 750 177 750 270 743 270Z" fill="#4472C4"/></g><g clip-path="url(#clip7)"><path d="M90 203 97 203 97 270 90 270ZM156 254 163 254 163 270 156 270ZM222 244 230 244 230 270 222 270ZM288 212 296 212 296 270 288 270ZM355 235 362 235 362 270 355 270ZM421 258 428 258 428 270 421 270ZM487 163 495 163 495 270 487 270ZM553 251 561 251 561 270 553 270ZM620 233 627 233 627 270 620 270ZM686 261 693 261 693 270 686 270ZM752 222 760 222 760 270 752 270Z" fill="#2F5597"/></g><g clip-path="url(#clip8)"><path d="M99 221 107 221 107 270 99 270ZM165 236 173 236 173 270 165 270ZM232 249 239 249 239 270 232 270ZM298 299 305 299 305 270 298 270ZM364 256 372 256 372 270 364 270ZM430 214 438 214 438 270 430 270ZM497 144 504 144 504 270 497 270ZM563 266 570 266 570 270 563 270ZM629 223 637 223 637 270 629 270ZM695 261 703 261 703 270 695 270ZM762 164 769 164 769 270 762 270Z" fill="#ED7D31"/></g><g clip-path="url(#clip9)"><path d="M109 233 116 233 116 270 109 270ZM175 252 182 252 182 270 175 270ZM241 249 249 249 249 270 241 270ZM307 285 315 285 315 270 307 270ZM374 258 381 258 381 270 374 270ZM440 227 447 227 447 270 440 270ZM506 127 514 127 514 270 506 270ZM572 251 580 251 580 270 572 270ZM639 229 646 229 646 270 639 270ZM705 264 712 264 712 270 705 270ZM771 160 779 160 779 270 771 270Z" fill="#C55A11"/></g><g clip-path="url(#clip10)"><path d="M0 0 0.000131234 215" stroke="#000000" stroke-width="1.25" stroke-linejoin="round" stroke-miterlimit="10" fill="none" fill-rule="evenodd" transform="matrix(1 0 0 -1 55.5 312.5)"/></g><g clip-path="url(#clip11)"><path d="M55.5 312.5 59.5 312.5M55.5 291.5 59.5 291.5M55.5 269.5 59.5 269.5M55.5 248.5 59.5 248.5M55.5 226.5 59.5 226.5M55.5 204.5 59.5 204.5M55.5 183.5 59.5 183.5M55.5 161.5 59.5 161.5M55.5 140.5 59.5 140.5M55.5 118.5 59.5 118.5M55.5 97.5 59.5 97.5" stroke="#000000" stroke-width="1.25" stroke-linejoin="round" stroke-miterlimit="10" fill="none"/></g><g clip-path="url(#clip12)"><path d="M55.5 269.5 784.5 269.5" stroke="#000000" stroke-width="1.25" stroke-linejoin="round" stroke-miterlimit="10" fill="none" fill-rule="evenodd"/></g><g clip-path="url(#clip13)"><path d="M55.5 265.5 55.5 269.5M121.5 265.5 121.5 269.5M188.5 265.5 188.5 269.5M254.5 265.5 254.5 269.5M320.5 265.5 320.5 269.5M386.5 265.5 386.5 269.5M453.5 265.5 453.5 269.5M519.5 265.5 519.5 269.5M585.5 265.5 585.5 269.5M651.5 265.5 651.5 269.5M717.5 265.5 717.5 269.5M784.5 265.5 784.5 269.5" stroke="#000000" stroke-width="1.25" stroke-linejoin="round" stroke-miterlimit="10" fill="none"/></g><g clip-path="url(#clip14)"><text font-family="Arial Narrow,Arial Narrow_MSFontService,Arial" font-weight="400" font-stretch="condensed" font-size="13" transform="translate(29.902 317)">-10</text></g><g clip-path="url(#clip15)"><text font-family="Arial Narrow,Arial Narrow_MSFontService,Arial" font-weight="400" font-stretch="condensed" font-size="13" transform="translate(35.602 296)">-5</text></g><g clip-path="url(#clip16)"><text font-family="Arial Narrow,Arial Narrow_MSFontService,Arial" font-weight="400" font-stretch="condensed" font-size="13" transform="translate(39.0104 274)">0</text></g><g clip-path="url(#clip17)"><text font-family="Arial Narrow,Arial Narrow_MSFontService,Arial" font-weight="400" font-stretch="condensed" font-size="13" transform="translate(39.0104 253)">5</text></g><g clip-path="url(#clip18)"><text font-family="Arial Narrow,Arial Narrow_MSFontService,Arial" font-weight="400" font-stretch="condensed" font-size="13" transform="translate(33.3104 231)">10</text></g><g clip-path="url(#clip19)"><text font-family="Arial Narrow,Arial Narrow_MSFontService,Arial" font-weight="400" font-stretch="condensed" font-size="13" transform="translate(33.3104 209)">15</text></g><g clip-path="url(#clip20)"><text font-family="Arial Narrow,Arial Narrow_MSFontService,Arial" font-weight="400" font-stretch="condensed" font-size="13" transform="translate(33.3104 188)">20</text></g><g clip-path="url(#clip21)"><text font-family="Arial Narrow,Arial Narrow_MSFontService,Arial" font-weight="400" font-stretch="condensed" font-size="13" transform="translate(33.3104 166)">25</text></g><g clip-path="url(#clip22)"><text font-family="Arial Narrow,Arial Narrow_MSFontService,Arial" font-weight="400" font-stretch="condensed" font-size="13" transform="translate(33.3104 145)">30</text></g><g clip-path="url(#clip23)"><text font-family="Arial Narrow,Arial Narrow_MSFontService,Arial" font-weight="400" font-stretch="condensed" font-size="13" transform="translate(33.3104 123)">35</text></g><g clip-path="url(#clip24)"><text font-family="Arial Narrow,Arial Narrow_MSFontService,Arial" font-weight="400" font-stretch="condensed" font-size="13" transform="translate(33.3104 102)">40</text></g><g clip-path="url(#clip25)"><text font-family="Arial Narrow,Arial Narrow_MSFontService,Arial" font-weight="400" font-stretch="condensed" font-size="13" transform="translate(64.2598 327)">Agriculture</text></g><g clip-path="url(#clip26)"><text font-family="Arial Narrow,Arial Narrow_MSFontService,Arial" font-weight="400" font-stretch="condensed" font-size="13" transform="translate(126.497 327)">Bunker fuels</text></g><g clip-path="url(#clip27)"><text font-family="Arial Narrow,Arial Narrow_MSFontService,Arial" font-weight="400" font-stretch="condensed" font-size="13" transform="translate(200.422 327)">Industrial</text></g><g clip-path="url(#clip28)"><text font-family="Arial Narrow,Arial Narrow_MSFontService,Arial" font-weight="400" font-stretch="condensed" font-size="13" transform="translate(197.859 342)">processes</text></g><g clip-path="url(#clip29)"><text font-family="Arial Narrow,Arial Narrow_MSFontService,Arial" font-weight="400" font-stretch="condensed" font-size="13" transform="translate(274.067 327)">LUCF</text></g><g clip-path="url(#clip30)"><text font-family="Arial Narrow,Arial Narrow_MSFontService,Arial" font-weight="400" font-stretch="condensed" font-size="13" transform="translate(339.154 327)">Waste</text></g><g clip-path="url(#clip31)"><text font-family="Arial Narrow,Arial Narrow_MSFontService,Arial" font-weight="400" font-stretch="condensed" font-size="13" transform="translate(401.683 327)">Building</text></g><g clip-path="url(#clip32)"><text font-family="Arial Narrow,Arial Narrow_MSFontService,Arial" font-weight="400" font-stretch="condensed" font-size="13" transform="translate(454.249 327)">Electricity and</text></g><g clip-path="url(#clip33)"><text font-family="Arial Narrow,Arial Narrow_MSFontService,Arial" font-weight="400" font-stretch="condensed" font-size="13" transform="translate(476.17 342)">heat</text></g><g clip-path="url(#clip34)"><text font-family="Arial Narrow,Arial Narrow_MSFontService,Arial" font-weight="400" font-stretch="condensed" font-size="13" transform="translate(534.436 327)">Fugitive</text></g><g clip-path="url(#clip35)"><text font-family="Arial Narrow,Arial Narrow_MSFontService,Arial" font-weight="400" font-stretch="condensed" font-size="13" transform="translate(529.595 342)">emissions</text></g><g clip-path="url(#clip36)"><text font-family="Arial Narrow,Arial Narrow_MSFontService,Arial" font-weight="400" font-stretch="condensed" font-size="13" transform="translate(586.136 327)">Manufacturing</text></g><g clip-path="url(#clip37)"><text font-family="Arial Narrow,Arial Narrow_MSFontService,Arial" font-weight="400" font-stretch="condensed" font-size="13" transform="translate(610.061 342)">and</text></g><g clip-path="url(#clip38)"><text font-family="Arial Narrow,Arial Narrow_MSFontService,Arial" font-weight="400" font-stretch="condensed" font-size="13" transform="translate(590.982 356)">construction</text></g><g clip-path="url(#clip39)"><text font-family="Arial Narrow,Arial Narrow_MSFontService,Arial" font-weight="400" font-stretch="condensed" font-size="13" transform="translate(662.34 327)">Other fuel</text></g><g clip-path="url(#clip40)"><text font-family="Arial Narrow,Arial Narrow_MSFontService,Arial" font-weight="400" font-stretch="condensed" font-size="13" transform="translate(658.636 342)">combustion</text></g><g clip-path="url(#clip41)"><text font-family="Arial Narrow,Arial Narrow_MSFontService,Arial" font-weight="400" font-stretch="condensed" font-size="13" transform="translate(729.152 327)">Transport</text></g><g clip-path="url(#clip42)"><text font-family="Arial Narrow,Arial Narrow_MSFontService,Arial" font-weight="400" font-stretch="condensed" font-size="13" transform="translate(41.0095 83)">%</text></g><g clip-path="url(#clip43)"><rect x="62" y="54" width="719" height="36" fill="#EAEAEA"/></g><g clip-path="url(#clip44)"><rect x="119" y="69" width="6" height="6" fill="#A7CE39"/></g><g clip-path="url(#clip45)"><text font-family="Arial Narrow,Arial Narrow_MSFontService,Arial" font-weight="400" font-stretch="condensed" font-size="13" transform="translate(128.01 76)">LAC</text></g><g clip-path="url(#clip46)"><rect x="204" y="69" width="6" height="6" fill="#548235"/></g><g clip-path="url(#clip47)"><text font-family="Arial Narrow,Arial Narrow_MSFontService,Arial" font-weight="400" font-stretch="condensed" font-size="13" transform="translate(213.038 76)">South America</text></g><g clip-path="url(#clip48)"><rect x="336" y="69" width="7" height="6" fill="#4472C4"/></g><g clip-path="url(#clip49)"><text font-family="Arial Narrow,Arial Narrow_MSFontService,Arial" font-weight="400" font-stretch="condensed" font-size="13" transform="translate(345.35 76)">Central America</text></g><g clip-path="url(#clip50)"><rect x="475" y="69" width="6" height="6" fill="#2F5597"/></g><g clip-path="url(#clip51)"><text font-family="Arial Narrow,Arial Narrow_MSFontService,Arial" font-weight="400" font-stretch="condensed" font-size="13" transform="translate(483.912 76)">Caribbean</text></g><g clip-path="url(#clip52)"><rect x="587" y="69" width="7" height="6" fill="#ED7D31"/></g><g clip-path="url(#clip53)"><text font-family="Arial Narrow,Arial Narrow_MSFontService,Arial" font-weight="400" font-stretch="condensed" font-size="13" transform="translate(596.291 76)">EU (27)</text></g><g clip-path="url(#clip54)"><rect x="688" y="69" width="6" height="6" fill="#C55A11"/></g><g clip-path="url(#clip55)"><text font-family="Arial Narrow,Arial Narrow_MSFontService,Arial" font-weight="400" font-stretch="condensed" font-size="13" transform="translate(696.686 76)">OECD</text></g></g></svg>