<?xml version="1.0" encoding="UTF-8"?><svg xmlns="http://www.w3.org/2000/svg" width="1900" height="190" xmlns:xlink="http://www.w3.org/1999/xlink" viewBox="0 0 1900 190"><defs><style>.cls-1{fill:url(#linear-gradient-2);}.cls-2{fill:url(#Policy_Brief_dots_2);}.cls-3{fill:#fff;}.cls-4{fill:#101d40;}.cls-5{fill:url(#linear-gradient-5);}.cls-6{fill:none;}.cls-7{fill:url(#linear-gradient-3);}.cls-8{fill:url(#linear-gradient);}.cls-9{fill:url(#linear-gradient-4);}.cls-10{fill:#31a8ff;}</style><linearGradient id="linear-gradient" x1="-21826.59" y1="-28999.14" x2="-21822.74" y2="-28998.25" gradientTransform="translate(21831.64 -28991.72) scale(1 -1)" gradientUnits="userSpaceOnUse"><stop offset="0" stop-color="#2484c6"/><stop offset=".15" stop-color="#1f89cb" stop-opacity=".94"/><stop offset=".39" stop-color="#1199da" stop-opacity=".77"/><stop offset=".64" stop-color="#00aeef" stop-opacity=".55"/><stop offset=".71" stop-color="#06a7e8" stop-opacity=".5"/><stop offset="1" stop-color="#00aeef" stop-opacity=".3"/></linearGradient><linearGradient id="linear-gradient-2" x1="-21811.59" x2="-21807.74" xlink:href="#linear-gradient"/><linearGradient id="linear-gradient-3" x1="-21826.59" y1="-29015.14" y2="-29014.25" xlink:href="#linear-gradient"/><linearGradient id="linear-gradient-4" x1="-21811.59" y1="-29015.14" x2="-21807.74" y2="-29014.25" xlink:href="#linear-gradient"/><pattern id="Policy_Brief_dots_2" x="0" y="0" width="28.95" height="29.95" patternTransform="translate(1425.75 -30.58) scale(1.13 1)" patternUnits="userSpaceOnUse" viewBox="0 0 28.95 29.95"><rect class="cls-6" width="28.95" height="29.95"/><circle class="cls-8" cx="6.98" cy="6.98" r="1.98"/><circle class="cls-1" cx="21.98" cy="6.98" r="1.98"/><circle class="cls-7" cx="6.98" cy="22.98" r="1.98"/><circle class="cls-9" cx="21.98" cy="22.98" r="1.98"/></pattern><linearGradient id="linear-gradient-5" x1="725.57" y1="95" x2="2236.16" y2="95" gradientTransform="translate(-714.47 190) scale(1 -1)" gradientUnits="userSpaceOnUse"><stop offset=".16" stop-color="#101d40" stop-opacity="0"/><stop offset=".52" stop-color="#101d40" stop-opacity=".58"/><stop offset=".82" stop-color="#101d40"/></linearGradient></defs><g id="Background_pattern"><rect id="Background" class="cls-4" width="1900" height="190"/><g id="Right_dot_ghradiant"><rect class="cls-2" x="636.49" y="-32.82" width="1365.23" height="247.23"/><rect class="cls-5" x="-8.54" y="-45.07" width="1895.1" height="280.14" transform="translate(1878.01 190) rotate(-180)"/></g></g><g id="FR"><path class="cls-10" d="m305.25,127.32h-13.44l-21.77-37.8h-.28c.09,2.38.2,4.76.31,7.14.12,2.38.22,4.76.32,7.14v23.52h-9.45v-49.98h13.37l21.7,37.45h.21c-.09-2.29-.19-4.57-.28-6.86-.09-2.29-.16-4.6-.21-6.93v-23.66h9.52v49.98Z"/><path class="cls-10" d="m351.73,108.14c0,6.35-1.67,11.25-5,14.7-3.34,3.45-7.88,5.18-13.62,5.18-3.55,0-6.71-.77-9.48-2.31-2.78-1.54-4.96-3.79-6.54-6.76-1.59-2.96-2.38-6.57-2.38-10.81,0-6.35,1.66-11.22,4.97-14.63,3.31-3.41,7.86-5.11,13.65-5.11,3.59,0,6.77.77,9.52,2.31,2.75,1.54,4.92,3.78,6.51,6.72,1.59,2.94,2.38,6.51,2.38,10.71Zm-26.39,0c0,3.78.62,6.64,1.85,8.58,1.24,1.94,3.26,2.9,6.06,2.9s4.75-.97,5.98-2.9c1.24-1.94,1.86-4.79,1.86-8.58s-.62-6.61-1.86-8.5-3.25-2.83-6.05-2.83-4.75.94-5.99,2.83-1.85,4.73-1.85,8.5Z"/><path class="cls-10" d="m376.44,119.69c1.17,0,2.29-.1,3.36-.31,1.07-.21,2.15-.5,3.22-.88v7.77c-1.12.51-2.51.93-4.17,1.26-1.66.33-3.46.49-5.42.49-2.29,0-4.33-.37-6.12-1.12-1.8-.75-3.22-2.03-4.27-3.85s-1.58-4.39-1.58-7.7v-18.41h-4.97v-4.41l5.74-3.5,3.01-8.05h6.65v8.12h10.71v7.84h-10.71v18.41c0,1.45.42,2.53,1.26,3.26.84.72,1.94,1.08,3.29,1.08Z"/><path class="cls-10" d="m406.47,88.4c5.27,0,9.45,1.5,12.53,4.52,3.08,3.01,4.62,7.29,4.62,12.84v5.04h-24.64c.09,2.94.97,5.25,2.62,6.93,1.66,1.68,3.96,2.52,6.9,2.52,2.43,0,4.65-.25,6.68-.74,2.03-.49,4.12-1.25,6.27-2.27v8.05c-1.91.93-3.9,1.62-5.95,2.06-2.05.44-4.55.67-7.49.67-3.83,0-7.21-.71-10.15-2.14-2.94-1.42-5.25-3.57-6.93-6.44s-2.52-6.52-2.52-10.96.76-8.14,2.27-11.13c1.52-2.99,3.63-5.23,6.33-6.72,2.71-1.49,5.86-2.24,9.45-2.24Zm.07,7.42c-2.05,0-3.73.65-5.04,1.96-1.31,1.31-2.08,3.34-2.31,6.09h14.63c-.05-2.29-.67-4.2-1.85-5.74-1.19-1.54-3-2.31-5.42-2.31Z"/><path class="cls-10" d="m462.4,128.03c-4.25,0-7.71-1.67-10.4-5.01-2.68-3.34-4.02-8.25-4.02-14.73s1.35-11.48,4.06-14.84c2.71-3.36,6.25-5.04,10.64-5.04,2.75,0,5.02.54,6.79,1.61,1.77,1.07,3.17,2.4,4.2,3.99h.35c-.14-.75-.3-1.83-.49-3.26-.19-1.42-.28-2.88-.28-4.38v-12.25h10.43v53.2h-7.98l-2.03-4.97h-.42c-1.03,1.59-2.4,2.93-4.13,4.03-1.73,1.1-3.97,1.65-6.72,1.65Zm3.64-8.33c2.85,0,4.85-.85,6.02-2.56,1.17-1.7,1.8-4.26,1.89-7.67v-1.12c0-3.69-.57-6.52-1.71-8.5-1.14-1.98-3.25-2.98-6.33-2.98-2.29,0-4.08.99-5.39,2.98-1.31,1.98-1.96,4.84-1.96,8.58s.65,6.54,1.96,8.44c1.31,1.89,3.15,2.83,5.53,2.83Z"/><path class="cls-10" d="m510.34,88.4c5.27,0,9.45,1.5,12.53,4.52,3.08,3.01,4.62,7.29,4.62,12.84v5.04h-24.64c.09,2.94.97,5.25,2.62,6.93,1.66,1.68,3.96,2.52,6.9,2.52,2.43,0,4.65-.25,6.68-.74,2.03-.49,4.12-1.25,6.27-2.27v8.05c-1.91.93-3.9,1.62-5.95,2.06-2.05.44-4.55.67-7.49.67-3.83,0-7.21-.71-10.15-2.14-2.94-1.42-5.25-3.57-6.93-6.44s-2.52-6.52-2.52-10.96.76-8.14,2.27-11.13c1.52-2.99,3.63-5.23,6.33-6.72,2.71-1.49,5.86-2.24,9.45-2.24Zm.07,7.42c-2.05,0-3.73.65-5.04,1.96-1.31,1.31-2.08,3.34-2.31,6.09h14.63c-.05-2.29-.67-4.2-1.85-5.74-1.19-1.54-3-2.31-5.42-2.31Z"/><path class="cls-3" d="m580.83,115.98c0,3.87-1.37,6.85-4.09,8.92-2.73,2.08-6.8,3.12-12.21,3.12-2.66,0-4.95-.18-6.86-.53-1.91-.35-3.83-.92-5.74-1.71v-8.61c2.05.93,4.27,1.7,6.65,2.31,2.38.61,4.48.91,6.3.91,2.01,0,3.45-.3,4.34-.91.89-.61,1.33-1.4,1.33-2.38,0-.65-.17-1.24-.52-1.75-.35-.51-1.11-1.1-2.28-1.75-1.17-.65-2.99-1.49-5.46-2.52-2.43-1.03-4.4-2.04-5.92-3.04-1.52-1-2.65-2.22-3.4-3.64-.75-1.42-1.12-3.21-1.12-5.35,0-3.55,1.38-6.21,4.13-7.98,2.75-1.77,6.42-2.66,10.99-2.66,2.38,0,4.64.23,6.79.7,2.15.47,4.36,1.24,6.65,2.31l-3.15,7.49c-1.87-.79-3.64-1.46-5.32-2-1.68-.54-3.38-.81-5.11-.81-3.08,0-4.62.84-4.62,2.52,0,.61.2,1.16.6,1.65.4.49,1.17,1.02,2.31,1.58,1.14.56,2.83,1.31,5.08,2.24,2.19.89,4.08,1.81,5.67,2.77,1.59.96,2.81,2.16,3.67,3.6.86,1.45,1.29,3.29,1.29,5.53Z"/><path class="cls-3" d="m583.49,89.1h11.41l7.21,21.49c.37,1.07.65,2.15.84,3.22.19,1.07.33,2.22.42,3.43h.21c.14-1.21.33-2.36.56-3.43.23-1.07.54-2.15.91-3.22l7.07-21.49h11.2l-16.17,43.12c-1.49,3.97-3.62,6.94-6.37,8.93-2.75,1.98-5.95,2.97-9.59,2.97-1.21,0-2.24-.06-3.08-.17-.84-.12-1.59-.25-2.24-.38v-8.26c.47.09,1.07.19,1.82.28.75.09,1.52.14,2.31.14,2.19,0,3.92-.67,5.18-2,1.26-1.33,2.22-2.93,2.87-4.79l.63-1.89-15.19-37.94Z"/><path class="cls-3" d="m650.48,88.4c4.11,0,7.4,1.11,9.87,3.32,2.47,2.22,3.71,5.78,3.71,10.68v24.92h-10.43v-22.33c0-2.75-.49-4.82-1.47-6.19-.98-1.38-2.54-2.06-4.69-2.06-3.17,0-5.34,1.08-6.51,3.25-1.17,2.17-1.75,5.29-1.75,9.34v17.99h-10.43v-38.22h7.98l1.4,4.9h.56c1.21-1.96,2.88-3.38,5-4.27,2.12-.89,4.38-1.33,6.75-1.33Z"/><path class="cls-3" d="m690.87,119.69c1.17,0,2.29-.1,3.36-.31,1.07-.21,2.15-.5,3.22-.88v7.77c-1.12.51-2.51.93-4.17,1.26-1.66.33-3.46.49-5.42.49-2.29,0-4.33-.37-6.12-1.12-1.8-.75-3.22-2.03-4.27-3.85s-1.58-4.39-1.58-7.7v-18.41h-4.97v-4.41l5.74-3.5,3.01-8.05h6.65v8.12h10.71v7.84h-10.71v18.41c0,1.45.42,2.53,1.26,3.26.84.72,1.94,1.08,3.29,1.08Z"/><path class="cls-3" d="m715.58,74.12v10.85c0,1.91-.06,3.72-.17,5.43-.12,1.7-.22,2.9-.31,3.6h.56c1.21-1.96,2.78-3.38,4.69-4.27,1.91-.89,4.04-1.33,6.37-1.33,4.11,0,7.42,1.11,9.94,3.32,2.52,2.22,3.78,5.78,3.78,10.68v24.92h-10.43v-22.33c0-5.51-2.05-8.26-6.16-8.26-3.13,0-5.29,1.08-6.48,3.25-1.19,2.17-1.79,5.29-1.79,9.34v17.99h-10.43v-53.2h10.43Z"/><path class="cls-3" d="m766.89,88.4c5.27,0,9.45,1.5,12.53,4.52,3.08,3.01,4.62,7.29,4.62,12.84v5.04h-24.64c.09,2.94.97,5.25,2.62,6.93,1.66,1.68,3.96,2.52,6.9,2.52,2.43,0,4.65-.25,6.68-.74,2.03-.49,4.12-1.25,6.27-2.27v8.05c-1.91.93-3.9,1.62-5.95,2.06-2.05.44-4.55.67-7.49.67-3.83,0-7.21-.71-10.15-2.14-2.94-1.42-5.25-3.57-6.93-6.44s-2.52-6.52-2.52-10.96.76-8.14,2.27-11.13c1.52-2.99,3.63-5.23,6.33-6.72,2.71-1.49,5.86-2.24,9.45-2.24Zm-2.17-14.7c.7,1.03,1.53,2.18,2.49,3.47.96,1.28,1.94,2.52,2.94,3.71,1,1.19,1.88,2.23,2.62,3.11v.91h-6.93c-.89-.61-1.92-1.37-3.12-2.27-1.19-.91-2.4-1.88-3.64-2.91-1.24-1.03-2.39-2.01-3.46-2.94-1.07-.93-1.94-1.73-2.59-2.38v-.7h11.69Zm2.24,22.12c-2.05,0-3.73.65-5.04,1.96-1.31,1.31-2.08,3.34-2.31,6.09h14.63c-.05-2.29-.67-4.2-1.85-5.74-1.19-1.54-3-2.31-5.42-2.31Z"/><path class="cls-3" d="m819.18,115.98c0,3.87-1.37,6.85-4.09,8.92-2.73,2.08-6.8,3.12-12.21,3.12-2.66,0-4.95-.18-6.86-.53-1.91-.35-3.83-.92-5.74-1.71v-8.61c2.05.93,4.27,1.7,6.65,2.31,2.38.61,4.48.91,6.3.91,2.01,0,3.45-.3,4.34-.91.89-.61,1.33-1.4,1.33-2.38,0-.65-.17-1.24-.52-1.75-.35-.51-1.11-1.1-2.28-1.75-1.17-.65-2.99-1.49-5.46-2.52-2.43-1.03-4.4-2.04-5.92-3.04-1.52-1-2.65-2.22-3.4-3.64-.75-1.42-1.12-3.21-1.12-5.35,0-3.55,1.38-6.21,4.13-7.98,2.75-1.77,6.42-2.66,10.99-2.66,2.38,0,4.64.23,6.79.7,2.15.47,4.36,1.24,6.65,2.31l-3.15,7.49c-1.87-.79-3.64-1.46-5.32-2-1.68-.54-3.38-.81-5.11-.81-3.08,0-4.62.84-4.62,2.52,0,.61.2,1.16.6,1.65.4.49,1.17,1.02,2.31,1.58,1.14.56,2.83,1.31,5.08,2.24,2.19.89,4.08,1.81,5.67,2.77,1.59.96,2.81,2.16,3.67,3.6.86,1.45,1.29,3.29,1.29,5.53Z"/><path class="cls-3" d="m843.05,88.4c5.27,0,9.45,1.5,12.53,4.52,3.08,3.01,4.62,7.29,4.62,12.84v5.04h-24.64c.09,2.94.97,5.25,2.62,6.93,1.66,1.68,3.96,2.52,6.9,2.52,2.43,0,4.65-.25,6.68-.74,2.03-.49,4.12-1.25,6.27-2.27v8.05c-1.91.93-3.9,1.62-5.95,2.06-2.05.44-4.55.67-7.49.67-3.83,0-7.21-.71-10.15-2.14-2.94-1.42-5.25-3.57-6.93-6.44s-2.52-6.52-2.52-10.96.76-8.14,2.27-11.13c1.52-2.99,3.63-5.23,6.33-6.72,2.71-1.49,5.86-2.24,9.45-2.24Zm.07,7.42c-2.05,0-3.73.65-5.04,1.96-1.31,1.31-2.08,3.34-2.31,6.09h14.63c-.05-2.29-.67-4.2-1.85-5.74-1.19-1.54-3-2.31-5.42-2.31Z"/></g></svg>